<svg width="846" height="846" viewBox="0 0 846 846" fill="none" xmlns="http://www.w3.org/2000/svg">
<path d="M399.091 99.5066C387.863 116.349 370.052 142.775 359.598 158.262C349.048 173.653 333.851 196.109 325.72 208.112C317.589 220.115 307.716 234.634 303.65 240.539L296.294 251.186L326.978 251.67C351.758 252.058 357.566 252.445 357.372 253.413C357.275 254.187 351.564 262.028 344.789 270.836C338.013 279.741 331.431 288.55 330.076 290.389C328.817 292.228 315.072 310.813 299.585 331.624C263.48 380.41 264.254 379.345 265.125 379.829C265.512 380.119 282.355 380.313 302.489 380.216C324.365 380.216 339.368 380.603 339.465 381.087C339.658 381.571 335.399 386.992 330.076 392.993C319.331 405.189 311.781 414.095 266.384 468.688C249.251 489.305 235.215 506.535 235.215 506.922C235.215 507.406 254.381 507.697 277.902 507.697C301.327 507.697 320.783 507.987 321.074 508.471C321.267 508.858 309.555 522.507 295.035 538.962C258.253 580.488 251.574 587.941 229.407 613.205L209.854 635.468L296.778 635.758C344.692 635.855 384.282 635.758 384.766 635.565C385.346 635.371 385.54 630.918 385.249 623.756L384.766 612.237L324.558 611.946C291.357 611.85 264.254 611.462 264.254 611.172C264.254 610.398 267.739 606.332 276.838 596.265C280.903 591.716 285.936 586.102 288.066 583.682C290.099 581.262 292.035 579.132 292.325 578.842C292.615 578.552 297.649 572.937 303.457 566.259C309.264 559.58 317.686 549.997 322.235 544.963C326.784 539.93 331.915 534.316 333.56 532.38C335.206 530.541 342.659 522.216 350.016 513.988C357.372 505.664 371.311 489.983 380.99 479.142C405.867 451.071 406.738 450.006 407.222 450.49C407.416 450.684 407.609 531.509 407.609 630.047C407.609 768.95 408 803 408 808.927C413.5 808.927 427 808.927 431.325 808.927C431.325 806.5 431.712 727.908 431.712 629.37C431.712 526.572 432.099 450.103 432.583 450.103C433.067 450.103 437.326 454.556 442.166 459.976C450.393 469.462 457.363 477.206 495.113 519.409C504.212 529.476 521.152 548.642 532.864 561.903C544.576 575.164 556.579 588.715 559.483 591.91C568.485 601.686 575.938 610.494 575.938 611.172C575.938 611.462 548.642 611.85 515.247 611.946L454.459 612.237L454.168 624.046L453.878 635.952H541.672C593.749 635.952 629.176 635.565 628.983 635.081C628.692 634.21 621.626 625.982 601.589 603.138C595.685 596.459 582.811 581.746 573.034 570.614C563.161 559.386 547.093 541.188 537.22 530.057C527.347 518.925 519.312 509.439 519.312 508.761C519.312 507.987 530.831 507.6 561.806 507.503C585.134 507.406 604.493 507.116 604.687 506.826C604.977 506.632 596.266 495.791 585.424 482.82C574.583 469.753 562.29 454.846 558.031 449.619C542.06 430.066 515.925 398.994 507.89 390.089C503.341 385.056 499.856 380.603 500.147 380.119C500.437 379.732 517.377 379.442 537.801 379.538C560.064 379.732 574.97 379.442 574.97 378.861C574.97 378.377 572.938 375.183 570.421 371.698C566.065 365.6 509.052 289.227 497.146 273.45C483.691 255.542 482.046 253.316 482.046 252.542C482.046 252.058 495.985 251.67 513.117 251.67H544.092L532.767 234.925C515.828 210.145 495.888 180.719 456.298 121.673C436.648 92.5373 420.387 68.7254 420.096 68.7254C419.806 68.7254 410.417 82.5672 399.091 99.5066ZM407.9 136.676C408.19 139.483 408.481 151.873 408.481 164.07V186.333L405.867 190.205C404.415 192.334 397.446 201.627 390.283 210.726L377.409 227.471H359.986C350.5 227.471 342.659 227.084 342.659 226.697C342.659 226.213 347.112 219.34 352.532 211.403C373.15 181.203 389.605 156.81 397.639 144.517C402.286 137.451 406.351 131.74 406.641 131.643C406.932 131.643 407.513 133.966 407.9 136.676ZM437.229 137.16C439.262 140.258 449.038 154.487 458.912 168.91C481.659 202.111 496.468 224.083 497.146 226.019C497.63 227.278 495.597 227.471 480.4 227.471H463.074L450.49 211.403C443.618 202.498 436.842 193.883 435.39 192.141L432.68 188.946V160.295C432.68 144.517 432.873 131.643 433.067 131.643C433.26 131.643 435.196 134.16 437.229 137.16ZM457.072 259.414C501.502 319.041 510.891 331.624 518.248 341.207C522.41 346.531 526.379 352.048 527.153 353.5L528.605 356.21H504.406H480.207L461.525 334.625C451.265 322.816 440.423 310.329 437.52 306.941L432.196 300.746L432.002 266.771C431.712 233.957 432.099 226.407 433.551 228.149C433.938 228.536 444.586 242.668 457.072 259.414ZM407.803 229.601C407.997 230.278 407.997 246.734 407.803 266.093L407.416 301.327L398.511 311.684C393.574 317.298 382.926 329.688 374.795 339.077L359.889 356.21H335.787C322.525 356.21 311.684 355.823 311.684 355.339C311.684 354.855 314.879 350.306 318.75 345.272C336.755 321.461 352.629 300.359 361.728 287.969C367.245 280.516 373.634 271.998 375.86 269.094C378.087 266.19 385.83 255.833 392.993 246.153C400.156 236.473 406.351 228.536 406.738 228.439C407.029 228.439 407.513 229.02 407.803 229.601ZM447.974 355.726C459.783 370.536 472.269 385.346 478.077 391.541C480.594 394.155 492.403 408.093 504.309 422.516C516.215 436.842 531.606 455.427 538.478 463.654C545.351 471.882 551.836 479.819 552.901 481.271L554.74 483.982H525.411L496.081 483.885L475.56 460.944C464.332 448.361 450.587 433.164 445.166 427.356C439.746 421.451 434.712 415.74 433.841 414.482C432.68 412.643 432.389 406.254 432.002 376.441C431.809 356.694 431.905 339.852 432.196 338.981C432.97 337.045 433.357 337.529 447.974 355.726ZM407.706 362.212C407.9 375.183 407.803 392.122 407.513 399.962L407.029 414.191L394.058 428.517C386.895 436.358 372.763 452.039 362.599 463.364L344.111 483.885H314.782C291.841 483.982 285.549 483.691 286.13 482.82C287.292 480.981 327.849 431.905 332.399 426.872C334.625 424.452 340.142 417.87 344.692 412.352C349.241 406.738 356.404 398.51 360.566 393.961C364.632 389.412 371.504 381.184 375.86 375.57C386.798 361.341 405.674 338.787 406.641 338.787C407.125 338.787 407.609 349.338 407.706 362.212Z" fill="black"/>
<path d="M511.085 734.878V809.217H528.024H544.963V735.168V661.216L528.024 660.925L511.085 660.635V734.878Z" fill="black"/>
<path d="M453.975 754.043V809.217L470.914 809.024L487.95 808.733V754.043V699.354L470.914 699.063L453.975 698.87V754.043Z" fill="black"/>
<path d="M352.339 772.435C352.339 791.6 352.339 808.637 352.339 809.024C354 809.024 360 809.217 369.278 809.024L386.217 809.217V773.403V737.588H369.278H352.339V772.435Z" fill="black"/>
<path d="M295.229 787.922V809.217H312.168H329.108V787.922V766.627H312.168H295.229V787.922Z" fill="black"/>
</svg>
